<svg xmlns="http://www.w3.org/2000/svg" xmlns:xlink="http://www.w3.org/1999/xlink" width="987" height="715" viewBox="0 0 987 715">
  <defs>
    <clipPath id="clip-path">
      <rect id="Rectangle_161" data-name="Rectangle 161" width="987" height="715" transform="translate(1034.095 652.152)" fill="#fff" stroke="#707070" stroke-width="1"/>
    </clipPath>
  </defs>
  <g id="Mask_Group_18" data-name="Mask Group 18" transform="translate(-1034.095 -652.152)" clip-path="url(#clip-path)">
    <g id="Group_1334" data-name="Group 1334" transform="translate(1110.999 778.197)">
      <g id="Group_1308" data-name="Group 1308" transform="translate(359.787 16.992)">
        <g id="Group_1307" data-name="Group 1307">
          <g id="Group_1306" data-name="Group 1306">
            <g id="Group_1305" data-name="Group 1305">
              <g id="Group_1304" data-name="Group 1304">
                <g id="Group_1303" data-name="Group 1303">
                  <g id="Group_1302" data-name="Group 1302">
                    <g id="Group_1301" data-name="Group 1301">
                      <path id="Path_552" data-name="Path 552" d="M360.869,79.88a49.516,49.516,0,0,0-12.708,3.356l-9.341-7.827L322.774,87.622l5.056,11.089a49.425,49.425,0,0,0-6.624,11.356l-12.136,1.07-2.708,19.981,11.41,4.265a49.309,49.309,0,0,0,3.358,12.709l-7.829,9.342,12.21,16.043,11.091-5.055a49.4,49.4,0,0,0,11.358,6.621l1.068,12.136,19.983,2.712,4.264-11.413a49.312,49.312,0,0,0,12.709-3.356l9.343,7.828,16.045-12.213-5.057-11.09a49.574,49.574,0,0,0,6.622-11.356l12.134-1.07,2.712-19.981-11.411-4.264a49.313,49.313,0,0,0-3.358-12.71l7.828-9.342-12.21-16.045-11.091,5.057a49.381,49.381,0,0,0-11.358-6.622L385.117,71.18l-19.98-2.71-4.268,11.41Zm5.993,27.555a21.634,21.634,0,1,1-21.727,16.547A21.64,21.64,0,0,1,366.862,107.435Z" transform="translate(-306.362 -68.47)" fill="#f5f5f5" fill-rule="evenodd"/>
                    </g>
                  </g>
                </g>
              </g>
            </g>
          </g>
        </g>
      </g>
      <g id="Group_1316" data-name="Group 1316" transform="translate(553.598 81.215)">
        <g id="Group_1315" data-name="Group 1315" transform="translate(0 0)">
          <g id="Group_1314" data-name="Group 1314">
            <g id="Group_1313" data-name="Group 1313">
              <g id="Group_1312" data-name="Group 1312">
                <g id="Group_1311" data-name="Group 1311">
                  <g id="Group_1310" data-name="Group 1310">
                    <g id="Group_1309" data-name="Group 1309">
                      <path id="Path_553" data-name="Path 553" d="M506.775,130.563a32.092,32.092,0,0,0-8.249,2.178l-6.065-5.082-10.414,7.927,3.281,7.2a32.059,32.059,0,0,0-4.3,7.372l-7.878.694-1.758,12.97,7.407,2.769a31.993,31.993,0,0,0,2.18,8.25l-5.082,6.065,7.926,10.415,7.2-3.281a32.08,32.08,0,0,0,7.373,4.3l.693,7.878,12.971,1.76,2.769-7.408a32,32,0,0,0,8.249-2.18l6.066,5.083,10.416-7.928-3.284-7.2a32.122,32.122,0,0,0,4.3-7.37l7.878-.7,1.759-12.97-7.407-2.768a32,32,0,0,0-2.18-8.251l5.082-6.065-7.926-10.415-7.2,3.282a32.106,32.106,0,0,0-7.373-4.3l-.693-7.877-12.97-1.759-2.77,7.407Zm3.891,17.886a14.044,14.044,0,1,1-14.1,10.741A14.046,14.046,0,0,1,510.666,148.449Z" transform="translate(-471.393 -123.156)" fill="#ebebeb" fill-rule="evenodd"/>
                    </g>
                  </g>
                </g>
              </g>
            </g>
          </g>
        </g>
      </g>
      <g id="Group_1327" data-name="Group 1327" transform="translate(414.71 153.15)">
        <g id="Group_1321" data-name="Group 1321" transform="translate(39.737 41.267)">
          <g id="Group_1320" data-name="Group 1320">
            <g id="Group_1319" data-name="Group 1319">
              <g id="Group_1318" data-name="Group 1318">
                <g id="Group_1317" data-name="Group 1317">
                  <path id="Path_554" data-name="Path 554" d="M399.213,222.682a17.1,17.1,0,0,0-4.688,3.1,22.59,22.59,0,0,0-7.271,13.362,22.867,22.867,0,0,0,.8,10.647,23.237,23.237,0,0,0,6.7,10.262,23.27,23.27,0,0,0,12.309,5.626,23.152,23.152,0,0,0,24.181-13.262,23.253,23.253,0,0,0,1.87-13.407,23.221,23.221,0,0,0-5.05-11.17,22.884,22.884,0,0,0-8.55-6.4,22.585,22.585,0,0,0-15.174-1.049,17.118,17.118,0,0,0-5.134,2.288c.068.146,1.8-.93,5.262-1.8a22.623,22.623,0,0,1,14.673,1.4,22.164,22.164,0,0,1,12.788,16.91,22.192,22.192,0,0,1-1.842,12.685,21.987,21.987,0,0,1-22.856,12.535,22.169,22.169,0,0,1-11.684-5.264,22.176,22.176,0,0,1-7.391-19.869,22.616,22.616,0,0,1,6.7-13.127C397.463,223.7,399.3,222.818,399.213,222.682Z" transform="translate(-386.965 -219.548)" fill="#ebebeb"/>
                </g>
              </g>
            </g>
          </g>
        </g>
        <g id="Group_1326" data-name="Group 1326">
          <g id="Group_1325" data-name="Group 1325">
            <g id="Group_1324" data-name="Group 1324">
              <g id="Group_1323" data-name="Group 1323">
                <g id="Group_1322" data-name="Group 1322">
                  <path id="Path_555" data-name="Path 555" d="M380.893,210.524a4.894,4.894,0,0,0-.174-.779c-.152-.573-.353-1.343-.617-2.339l-2.526-9.226-.1.24c4.765-2.577,11.028-5.966,18.6-10.066l-.405-.071c2.553,2.91,5.392,6.144,8.428,9.6l.152.173.227-.054a51.743,51.743,0,0,1,13.608-1.441l.257.008.127-.228,6.235-11.163-.536.22,20.291,5.966-.369-.523c-.248,3.949-.523,8.3-.8,12.76l-.02.325.279.169a51.451,51.451,0,0,1,10.629,8.554l.234.247.328-.094,12.29-3.5-.668-.278c3.188,5.828,6.627,12.115,10.15,18.558l.129-.745-9.576,8.459-.281.248.089.364a51.565,51.565,0,0,1,1.467,13.544l-.011.381.335.187,11.178,6.208-.3-.735c-1.877,6.429-3.888,13.319-5.928,20.3l.661-.465-12.763-.781-.393-.023-.2.337A51.26,51.26,0,0,1,452.4,285.48l0,0v0c-.08.29.174-.649-.18.652l0,.013.007.023.014.049.027.1.056.194.11.386.221.774.444,1.544.882,3.08q.881,3.076,1.756,6.126l.312-.749-18.545,10.177.793.139-8.473-9.568-.257-.29-.375.094a51.214,51.214,0,0,1-13.541,1.487l-.382-.008-.184.334-6.195,11.184.716-.295-20.311-5.9.431.612q.388-6.5.762-12.762l.021-.355-.3-.182a51.223,51.223,0,0,1-10.651-8.516l-.237-.247-.327.094-12.279,3.538.624.261-10.213-18.524-.107.613,9.55-8.493.213-.189-.068-.274a51.61,51.61,0,0,1-1.522-13.586l.006-.261-.225-.124-11.2-6.164.183.444c2.258-7.877,4.182-14.587,5.83-20.332l-.3.209,12.766.7.128.007.065-.108a53.713,53.713,0,0,1,6.133-8.352l1.744-1.882a5.158,5.158,0,0,0,.571-.63,6.786,6.786,0,0,0-.648.553c-.413.389-1.037.979-1.825,1.813a50.133,50.133,0,0,0-6.334,8.281l.193-.1-12.755-.861-.231-.015-.067.225c-1.7,5.73-3.682,12.424-6.009,20.281l-.087.294.27.152c3.45,1.93,7.1,3.972,11.159,6.238l-.221-.384a52.273,52.273,0,0,0,1.469,13.832l.144-.462-9.591,8.446-.3.263.191.35c3.2,5.87,6.571,12.034,10.137,18.565l.207.379.417-.119,12.291-3.5-.562-.153a52.387,52.387,0,0,0,10.864,8.739l-.281-.534q-.389,6.266-.794,12.76l-.029.478.46.134,20.3,5.94.476.14.241-.435,6.211-11.174-.566.324a52.427,52.427,0,0,0,13.878-1.508l-.632-.2,8.464,9.576.342.385.452-.248,18.549-10.168.456-.25-.143-.5q-.874-3.049-1.753-6.126l-.883-3.082-.442-1.544-.222-.773-.11-.387-.056-.193-.027-.1-.014-.048-.007-.025,0-.012c-.353,1.3-.1.359-.175.648h0l0,0a52.543,52.543,0,0,0,8.726-10.884l-.6.312,12.763.775.517.032.145-.5,5.909-20.309.143-.491-.446-.247-11.185-6.194.323.565a52.757,52.757,0,0,0-1.523-13.871l-.191.611c3.313-2.937,6.583-5.838,9.561-8.479l.363-.321-.234-.424-10.195-18.534-.224-.406-.445.127c-4.275,1.233-8.473,2.442-12.279,3.538l.561.153a52.4,52.4,0,0,0-10.888-8.7l.258.493c.264-4.46.521-8.813.754-12.763l.025-.411-.393-.113-20.317-5.873-.358-.1-.178.323-6.171,11.2.384-.22a52.243,52.243,0,0,0-13.811,1.554l.377.117-8.506-9.535-.177-.2-.229.128-18.486,10.281-.147.081.047.159c1.178,3.94,2.085,6.976,2.714,9.083.308,1,.546,1.769.723,2.343A6.525,6.525,0,0,0,380.893,210.524Z" transform="translate(-353.129 -184.409)" fill="#ebebeb"/>
                </g>
              </g>
            </g>
          </g>
        </g>
      </g>
      <g id="Group_1330" data-name="Group 1330" transform="translate(145.523 96.49)">
        <g id="Group_1328" data-name="Group 1328" transform="translate(114.651 0)">
          <path id="Path_556" data-name="Path 556" d="M278.093,210.687,296.522,137.4l-74.981-1.239Z" transform="translate(-221.54 -136.163)" fill="#ebebeb"/>
        </g>
        <g id="Group_1329" data-name="Group 1329" transform="translate(0 14.237)">
          <rect id="Rectangle_141" data-name="Rectangle 141" width="42.608" height="172.306" transform="matrix(-0.604, -0.797, 0.797, -0.604, 25.756, 138.101)" fill="#ebebeb"/>
        </g>
      </g>
      <circle id="Ellipse_12" data-name="Ellipse 12" cx="126.128" cy="126.128" r="126.128" transform="translate(361.529 77.704)" fill="#30a065"/>
      <path id="Path_557" data-name="Path 557" d="M116.927,413.67l34.634-50.128,40.466-78.272,35.729,26.544-56.113,59.408-40.074,55.2Z" transform="translate(20.39 -13.67)" fill="#263238"/>
      <path id="Path_558" data-name="Path 558" d="M221.92,301.531l42.458,32.5-22.084,69.24-18.061-1.738,15.828-59.586-48.721-19.7Z" transform="translate(33.367 -10.834)" fill="#263238"/>
      <path id="Path_559" data-name="Path 559" d="M121,396.531l-12.544,20.388L124.4,430.771l25.692-4.221-17.724-4.169-5.163-5.409,5.84-9.95" transform="translate(18.913 5.733)" fill="#30a065"/>
      <path id="Path_560" data-name="Path 560" d="M120.922,396.04l-12.544,20.388,15.943,13.852,25.692-4.221-17.724-4.169-5.163-5.409,5.84-9.95" transform="translate(18.899 5.647)" opacity="0.5"/>
      <path id="Path_561" data-name="Path 561" d="M222.871,386.9l-8.64,29,54-8.872s-22.759-5.994-33.034-4.04l3.105-14.6" transform="translate(37.359 4.052)" fill="#30a065"/>
      <path id="Path_562" data-name="Path 562" d="M222.871,386.9l-8.64,29,54-8.872s-22.759-5.994-33.034-4.04l3.105-14.6" transform="translate(37.359 4.052)" opacity="0.5"/>
      <path id="Path_563" data-name="Path 563" d="M143.315,492.255l-40.6,22.166-.7,24.186C61.955,538.607,5.067,532.649,0,588.1l880.719-8.642.019-535.49-28.707,68.9c-21.752-11.851-46.2,9.451-61.8,28.693-39.658,48.912-77.188,101.249-119.72,147.662-35.994,39.277-89.989,64.132-137.455,87.656l-52.994,12.269-56.324,31.378H378.859L361.53,457.438,335.3,461.2l-29.713,5.628-54,8.872-32.346,15.98-50.332-4.221" transform="translate(-0.001 -43.969)" fill="#ebebeb"/>
      <path id="Path_564" data-name="Path 564" d="M271.627,255.708l-19.058-2.993-3.739-.963-14.6-16.613s-14.31-1.072-23.8,7.206c0,0-9.536,26.89-16.016,37.774l-22.871,19.428S204.6,327.056,226.194,318.8l17.669-48.3,5.819-.322,25.356,2.41,49.814-13.471-1.945-11.835Z" transform="translate(29.913 -22.42)" fill="#30a065"/>
      <path id="Path_565" data-name="Path 565" d="M191.814,303.791c10.026,4.689,21.507,7.806,30.844,4.235l4.083-11.164" transform="translate(33.449 -11.648)" fill="none" stroke="#455a64" stroke-miterlimit="10" stroke-width="0.75"/>
      <path id="Path_566" data-name="Path 566" d="M201.663,260.528a135.29,135.29,0,0,1-7.254,15.155l-22.871,19.428" transform="translate(29.913 -17.985)" fill="none" stroke="#455a64" stroke-miterlimit="10" stroke-width="0.75"/>
      <path id="Path_567" data-name="Path 567" d="M270.568,254.933l-4.716.775-19.058-2.994-3.739-.963-14.6-16.613a40.776,40.776,0,0,0-15.118,2.224,27.166,27.166,0,0,0-8.685,4.982" transform="translate(35.688 -22.42)" fill="none" stroke="#455a64" stroke-miterlimit="10" stroke-width="0.75"/>
      <path id="Path_568" data-name="Path 568" d="M295.678,260.514l2.816-.762,4.379-1.184,4.658-1.26-1.945-11.836-34.725,5.705" transform="translate(47.234 -20.61)" fill="none" stroke="#455a64" stroke-miterlimit="10" stroke-width="0.75"/>
      <path id="Path_569" data-name="Path 569" d="M233.123,265.292l5.819-.322,5.848.556L264.3,267.38" transform="translate(40.653 -17.21)" fill="none" stroke="#455a64" stroke-miterlimit="10" stroke-width="0.75"/>
      <path id="Path_570" data-name="Path 570" d="M269.24,222.973l-9.82,18.379s-6.984,12.166-19.1,4.7l-5.079,5.187L224.917,239.5,248.1,210.059Z" transform="translate(39.222 -26.786)" fill="#ffbe9d"/>
      <path id="Path_571" data-name="Path 571" d="M233.7,245.126" transform="translate(40.754 -20.671)" fill="#ffbe9d"/>
      <path id="Path_572" data-name="Path 572" d="M238.772,241.637s-4.465-4.166-4.809-6.262c0,0-1.255,6.346,2.571,8.548" transform="translate(40.765 -22.371)" fill="#eb996e"/>
      <g id="Group_1333" data-name="Group 1333" transform="translate(270.694 172.66)">
        <g id="Group_1332" data-name="Group 1332">
          <g id="Group_1331" data-name="Group 1331">
            <path id="Path_573" data-name="Path 573" d="M279.777,218.505a4.163,4.163,0,0,0-.2-3.856,2.556,2.556,0,0,0-3.385-.817,3.318,3.318,0,0,0-1.294-4.681c-1.551-.626-3.322.208-5,.155a7.164,7.164,0,0,1-4.356-2.047c-1.237-1.089-2.3-2.383-3.573-3.428a12.468,12.468,0,0,0-9.584-2.692,13.8,13.8,0,0,0-8.869,5.271c-1.894-1.4-4.688-1.045-6.628.447a10.716,10.716,0,0,0-3.617,6.352,23.963,23.963,0,0,0-.413,5.018c-.043.134-.1.261-.141.395-1.767,5.738-3.359,12.635-1.09,13.42,3.954,1.367,5.625-6.935,5.625-6.935,5.538-.413,6.276-8.808,7.884-9.591s5.06-2.7,13.449,6.22c3.258,3.463,8.554,5.123,11.662,5.369.09.008.181.022.271.028l.063.007c.034,0,.062-.009.1-.009a9.391,9.391,0,0,0,3.009-.326,5.709,5.709,0,0,0,3-1.854,3.344,3.344,0,0,0,.506-3.429A7.24,7.24,0,0,0,279.777,218.505Z" transform="translate(-230.499 -201.022)" fill="#263238"/>
          </g>
        </g>
      </g>
      <path id="Path_574" data-name="Path 574" d="M302.245,260.7l8.935-1.468,1.716-2.39.33-7.481-2.271-8.244-1.513-8.645s-1.05-2.486-3.643-.41l-1.6-9.731c-.708-2.634-3.922-1.555-3.922-1.555l1.606,15.766,1.661,13.434-2.982.49" transform="translate(52.364 -24.954)" fill="#ffbe9d"/>
      <path id="Path_575" data-name="Path 575" d="M300.694,223.157a2.025,2.025,0,0,0,1.6-1.084" transform="translate(52.437 -24.691)" fill="none" stroke="#eb996e" stroke-miterlimit="10" stroke-width="2"/>
      <path id="Path_576" data-name="Path 576" d="M305.6,232.83a1.723,1.723,0,0,0,2.64-.433" transform="translate(53.292 -22.89)" fill="none" stroke="#eb996e" stroke-miterlimit="10" stroke-width="2"/>
      <line id="Line_38" data-name="Line 38" x2="0.901" y2="5.484" transform="translate(358.164 207.113)" fill="none" stroke="#eb996e" stroke-miterlimit="10" stroke-width="0.25"/>
      <path id="Path_577" data-name="Path 577" d="M146.484,353.952s1.227,1.952-.685,4.789" transform="translate(25.425 -1.693)" fill="none" stroke="#455a64" stroke-miterlimit="10" stroke-width="0.75"/>
      <line id="Line_39" data-name="Line 39" y1="37.985" x2="35.801" transform="translate(208.497 302.135)" fill="none" stroke="#455a64" stroke-miterlimit="10" stroke-width="0.75"/>
      <line id="Line_40" data-name="Line 40" x2="1.227" y2="7.467" transform="translate(348.62 228.117)" fill="none" stroke="#455a64" stroke-miterlimit="10" stroke-width="0.75"/>
      <line id="Line_41" data-name="Line 41" x2="4.603" y2="2.849" transform="translate(227.01 259.37)" fill="none" stroke="#455a64" stroke-miterlimit="10" stroke-width="0.75"/>
      <path id="Path_578" data-name="Path 578" d="M108.378,413.4" transform="translate(18.899 8.675)"/>
    </g>
  </g>
</svg>
